<?xml version="1.0" standalone="no"?>
<!DOCTYPE svg PUBLIC "-//W3C//DTD SVG 20010904//EN"
 "http://www.w3.org/TR/2001/REC-SVG-20010904/DTD/svg10.dtd">
<svg version="1.0" xmlns="http://www.w3.org/2000/svg"
 width="115.000000pt" height="115.000000pt" viewBox="0 0 115.000000 115.000000"
 preserveAspectRatio="xMidYMid meet">
<metadata>
Created by potrace 1.11, written by Peter Selinger 2001-2013
</metadata>
<g transform="translate(0.000000,115.000000) scale(0.100000,-0.100000)"
fill="#000000" stroke="none">
<path d="M451 1093 c-6 -7 -10 -18 -9 -25 2 -7 -1 -13 -7 -13 -5 -1 -19 -5
-30 -9 -11 -5 -37 -14 -59 -22 -62 -24 -127 -73 -142 -110 -16 -37 -17 -38
-43 -25 -21 12 -35 2 -38 -24 -1 -11 -5 -42 -9 -70 -13 -92 -12 -100 16 -99
14 1 32 3 40 5 11 3 14 -3 12 -23 -2 -19 6 -36 32 -61 36 -37 38 -48 15 -102
-7 -16 -12 -33 -11 -37 1 -5 -2 -8 -6 -8 -4 0 -8 -10 -9 -22 -1 -11 -6 -24
-10 -27 -4 -3 -9 -20 -10 -38 -1 -18 -9 -46 -18 -62 -8 -17 -15 -36 -15 -44 0
-8 -7 -20 -15 -27 -8 -7 -13 -16 -10 -20 3 -4 -2 -13 -10 -20 -7 -6 -12 -17
-9 -25 3 -7 1 -16 -5 -20 -22 -13 -11 -31 19 -29 20 1 30 -3 30 -12 0 -8 -6
-11 -17 -7 -10 3 -15 3 -12 -1 12 -13 53 -15 62 -3 7 9 10 9 14 0 2 -7 17 -13
31 -12 l27 1 -25 7 c-22 6 -23 8 -7 14 11 4 23 5 28 2 5 -4 6 2 2 11 -4 12 -3
15 5 10 8 -5 12 1 12 18 0 14 5 28 11 32 8 4 9 -1 4 -16 -5 -15 -4 -20 4 -16
5 4 18 2 28 -3 10 -5 26 -12 36 -15 18 -6 24 -26 6 -26 -5 0 -7 6 -3 13 6 9 4
9 -8 -1 -9 -7 -28 -11 -43 -8 -29 5 -26 -5 3 -12 40 -9 75 -10 100 -2 15 5 23
9 18 9 -5 1 -3 8 4 16 15 18 43 12 71 -16 11 -11 25 -17 31 -13 7 4 8 3 4 -4
-5 -8 1 -12 16 -13 21 0 31 -2 63 -9 6 -1 19 -2 29 -1 20 1 20 1 0 17 -16 13
-16 15 -2 10 10 -3 20 -1 24 5 4 6 12 5 22 -3 13 -11 14 -11 7 1 -6 11 -4 13
11 6 10 -4 27 -8 37 -9 9 0 17 -3 17 -6 0 -4 21 -7 47 -9 25 -1 54 -6 64 -11
10 -6 28 -9 41 -9 13 1 32 -1 43 -5 l20 -7 -20 13 c-30 20 -27 33 8 32 18 -1
46 5 62 12 17 7 25 13 20 14 -6 0 -11 10 -12 22 -1 12 -11 40 -22 62 -37 77
-50 113 -55 152 -3 22 -18 71 -34 109 -15 39 -27 75 -27 80 0 6 16 25 33 44
18 19 36 47 39 62 4 22 11 28 37 31 26 3 32 8 34 32 5 38 -27 166 -41 166 -6
0 -24 -12 -40 -27 -18 -18 -28 -22 -26 -13 13 76 -79 168 -195 196 -19 5 -32
16 -40 36 l-11 29 -111 -2 c-72 -2 -115 -8 -123 -16z m-247 -318 c-4 -8 -12
-15 -20 -15 -8 0 -11 6 -8 15 4 8 12 15 20 15 8 0 11 -6 8 -15z m762 -22 c-11
-11 -19 6 -11 24 8 17 8 17 12 0 3 -10 2 -21 -1 -24z m-576 -244 c19 -6 49
-12 65 -15 70 -11 72 -12 67 -44 -2 -16 -8 -27 -13 -25 -4 3 -27 -4 -49 -15
-28 -15 -40 -26 -36 -36 3 -9 -2 -18 -12 -22 -52 -21 -102 -58 -102 -74 0 -10
-4 -18 -10 -18 -11 0 -7 34 13 110 8 30 18 73 22 95 6 36 13 55 18 55 1 0 18
-5 37 -11z m424 -91 c10 -57 19 -108 20 -115 1 -7 5 -16 9 -19 4 -4 7 -17 7
-28 0 -16 -7 -22 -26 -24 -24 -2 -25 0 -19 28 6 26 4 30 -15 30 -16 0 -20 4
-16 15 3 10 -1 19 -12 23 -9 4 -18 18 -20 31 -3 31 -4 32 -41 33 -17 1 -31 5
-31 10 0 5 -4 6 -10 3 -6 -4 -10 12 -10 39 0 41 2 46 23 46 12 0 40 7 62 15
22 8 45 14 51 15 6 0 19 -46 28 -102z m26 -243 c6 3 16 3 23 -2 8 -5 2 -10
-18 -14 l-30 -7 28 -1 c32 -1 37 -21 5 -21 -33 0 -14 -11 29 -17 44 -6 49 -9
31 -15 -7 -3 -34 0 -60 7 -34 8 -48 9 -49 1 0 -6 -3 -6 -6 2 -2 6 -20 12 -39
12 -26 0 -32 3 -28 15 4 8 18 15 32 15 14 0 22 3 19 7 -4 3 -2 12 4 19 8 10
16 11 30 3 11 -5 24 -7 29 -4z m-495 -5 c-3 -5 -11 -10 -16 -10 -6 0 -7 5 -4
10 3 6 11 10 16 10 6 0 7 -4 4 -10z m45 0 c0 -5 -2 -10 -4 -10 -3 0 -8 5 -11
10 -3 6 -1 10 4 10 6 0 11 -4 11 -10z"/>
<path d="M484 105 c8 -8 18 -15 22 -15 3 0 1 7 -6 15 -7 8 -17 15 -22 15 -5 0
-3 -7 6 -15z"/>
<path d="M420 95 c0 -7 30 -13 34 -7 3 4 -4 9 -15 9 -10 1 -19 0 -19 -2z"/>
<path d="M398 63 c7 -3 16 -2 19 1 4 3 -2 6 -13 5 -11 0 -14 -3 -6 -6z"/>
<path d="M640 50 c-11 -7 -6 -10 20 -10 19 0 42 5 50 10 11 7 6 10 -20 10 -19
0 -42 -5 -50 -10z"/>
<path d="M598 43 c7 -3 16 -2 19 1 4 3 -2 6 -13 5 -11 0 -14 -3 -6 -6z"/>
<path d="M730 38 c0 -10 17 -10 24 0 3 5 -1 9 -9 9 -8 0 -15 -4 -15 -9z"/>
</g>
</svg>
